<svg width="172" height="40" viewBox="0 0 172 40" fill="none" xmlns="http://www.w3.org/2000/svg">
<g clip-path="url(#clip0_444_10986)">
<path d="M63.0802 24.1945C62.8639 25.1859 62.5571 26.1021 62.1697 26.918C61.7824 27.734 61.3133 28.4509 60.7751 29.0525C60.1501 29.7594 59.4282 30.3058 58.6271 30.6781C57.8348 31.0453 56.9369 31.2408 56.029 31.2408C55.121 31.2408 54.3212 31.0679 53.5616 30.7269C52.802 30.386 52.0889 29.8759 51.4463 29.2142C50.9294 28.6577 50.4604 27.9934 50.0504 27.2402C49.6404 26.4869 49.2896 25.6359 49.0091 24.7122C48.7928 23.9351 48.6218 23.1041 48.5036 22.2406C48.3841 21.382 48.3237 20.4847 48.3237 19.5747C48.3237 18.7149 48.3891 17.8564 48.5199 17.0242C48.6507 16.1907 48.8368 15.3986 49.0733 14.6717C49.3751 13.7918 49.7523 12.9909 50.195 12.2903C50.6364 11.5922 51.1445 10.9781 51.7016 10.4642C52.3216 9.90901 53.017 9.48037 53.7691 9.1921C54.5186 8.90383 55.3348 8.75719 56.1924 8.75719C56.9835 8.75719 57.7468 8.91887 58.4636 9.23847C59.1792 9.55807 59.8243 10.033 60.3815 10.6522L60.4016 10.6735H60.4028C60.9084 11.2037 61.3322 11.8366 61.6617 12.556C61.9962 13.288 62.2414 14.0926 62.3923 14.9499L62.4074 15.0326H62.8891V10.0393L62.8425 10.0092C61.8994 9.39639 60.8468 8.92012 59.7162 8.59175C58.5856 8.26337 57.401 8.09668 56.195 8.09668C55.1185 8.09668 54.0608 8.24081 53.051 8.52532C52.0412 8.80983 51.0841 9.23095 50.2038 9.77866C49.3235 10.3276 48.5275 10.9981 47.837 11.7752C47.1454 12.5523 46.5606 13.4346 46.1003 14.3959C45.6614 15.2921 45.3269 16.2621 45.1081 17.2786C44.8893 18.2926 44.7773 19.3717 44.7773 20.4872C44.7773 22.1065 45.0389 23.6355 45.5558 25.033C46.0714 26.4343 46.8348 27.6563 47.8245 28.6627C48.8356 29.7142 50.0441 30.5252 51.4187 31.0729C52.7919 31.6206 54.3111 31.8976 55.9334 31.8976C57.3129 31.8976 58.5894 31.7534 59.7288 31.4702C60.8669 31.1869 62 30.7332 63.0991 30.1203L63.1469 30.094L63.5845 24.1131H63.0991L63.0815 24.192L63.0802 24.1945Z" fill="black"/>
<path d="M79.6349 16.6006C78.9282 15.7871 78.0781 15.1517 77.1072 14.7118C76.1364 14.2719 75.0737 14.0488 73.9494 14.0488C73.1785 14.0488 72.4177 14.1653 71.6895 14.3972C70.9614 14.6278 70.2798 14.9675 69.661 15.4074C69.065 15.8247 68.528 16.3374 68.0652 16.9314C67.6024 17.5255 67.2113 18.2036 66.9044 18.9468C66.619 19.6011 66.4014 20.3117 66.258 21.0599C66.1147 21.8019 66.043 22.589 66.043 23.3999C66.043 24.5392 66.2216 25.6334 66.5737 26.6523C66.9245 27.6726 67.4276 28.5787 68.0689 29.3495C68.7745 30.163 69.6246 30.7984 70.5967 31.2383C71.5675 31.6782 72.6302 31.9013 73.7545 31.9013C74.5254 31.9013 75.2862 31.7848 76.0156 31.5529C76.745 31.3223 77.4279 30.9814 78.0441 30.5427C78.6402 30.1254 79.1772 29.6127 79.64 29.0187C80.1015 28.4271 80.4926 27.7478 80.8007 27.0033C81.0849 26.349 81.3025 25.6384 81.4471 24.8902C81.5905 24.1444 81.6622 23.3573 81.6622 22.5502C81.6622 21.4134 81.4836 20.3192 81.1315 19.2977C80.7794 18.2763 80.2763 17.3701 79.6362 16.6006H79.6349ZM78.3447 23.3673C78.3447 24.3362 78.273 25.2549 78.1321 26.0971C77.9926 26.9344 77.7901 27.6864 77.531 28.3306C77.1449 29.2706 76.6369 29.9988 76.0194 30.4976C75.3981 30.9989 74.7115 31.2433 73.918 31.2433C73.1244 31.2433 72.3938 30.9551 71.7725 30.3873C71.1412 29.8108 70.6156 28.9773 70.2081 27.9107C69.949 27.1562 69.7403 26.3152 69.5894 25.4115C69.4385 24.5079 69.3617 23.5566 69.3617 22.584C69.3617 21.6114 69.4334 20.6915 69.5743 19.8542C69.7139 19.017 69.9163 18.265 70.1754 17.6208C70.5615 16.682 71.0695 15.9526 71.687 15.4538C72.3095 14.9524 72.9962 14.708 73.7884 14.708C74.5807 14.708 75.3114 14.9963 75.9339 15.564C76.5652 16.1406 77.0921 16.9741 77.4971 18.0394C77.7574 18.7952 77.9649 19.6374 78.1158 20.5411C78.2667 21.4497 78.3434 22.3998 78.3434 23.3686L78.3447 23.3673Z" fill="black"/>
<path d="M99.3084 30.9488C99.0631 30.9062 98.867 30.8535 98.7161 30.7896C98.4784 30.7107 98.3149 30.5778 98.2168 30.3823C98.1149 30.1805 98.0634 29.8998 98.0634 29.5451V19.4118C98.0634 17.6321 97.6861 16.2797 96.9403 15.3923C96.1908 14.5012 95.0452 14.0488 93.5335 14.0488C92.5162 14.0488 91.4786 14.3333 90.4512 14.8948C89.4954 15.4162 88.5636 16.1619 87.677 17.1132L87.8015 14.0488H87.565L82.2492 15.7094V15.9777L84.5116 17.0568V29.5451C84.5116 29.8985 84.4601 30.1792 84.3582 30.3823C84.2614 30.5766 84.0979 30.7107 83.8514 30.7921C83.7055 30.8548 83.5093 30.9074 83.2666 30.9488C83.0189 30.9927 82.6642 31.024 82.214 31.0453L82.1172 31.0503V31.5742H90.0588V31.0503L89.962 31.0453C89.5105 31.0253 89.1571 30.9927 88.9094 30.9488C88.6654 30.9062 88.468 30.8535 88.3171 30.7896C88.0794 30.7107 87.9159 30.5778 87.8178 30.3823C87.716 30.1818 87.6644 29.8998 87.6644 29.5451V17.696C87.9562 17.4716 88.2693 17.2648 88.5975 17.0806C88.9396 16.8888 89.298 16.7259 89.6665 16.5955C90.05 16.4464 90.4411 16.3323 90.8297 16.2571C91.2171 16.1832 91.5969 16.1443 91.959 16.1443C92.5338 16.1443 93.0154 16.2296 93.394 16.3963C93.7675 16.5617 94.073 16.8136 94.3044 17.147C94.5145 17.4416 94.6691 17.8088 94.7635 18.2387C94.8603 18.6773 94.9093 19.1925 94.9093 19.7703V29.5438C94.9093 29.8972 94.8578 30.178 94.7559 30.381C94.6603 30.5715 94.5019 30.7031 94.273 30.7834L94.2479 30.7921C94.102 30.8548 93.9058 30.9074 93.6631 30.9488C93.4153 30.9927 93.0607 31.024 92.6105 31.0453L92.5136 31.0503V31.5742H100.457V31.0503L100.36 31.0453C99.9082 31.0253 99.5549 30.9927 99.3071 30.9488H99.3084Z" fill="black"/>
<path d="M116.213 14.8906V14.3755H110.558L110.499 14.4356V14.8981L110.594 14.9044C110.94 14.927 111.241 14.9495 111.493 14.9696C111.737 14.9909 111.947 15.0235 112.118 15.0648C112.474 15.1488 112.735 15.2578 112.898 15.3882C113.049 15.511 113.123 15.6614 113.123 15.8494C113.123 15.9722 113.106 16.1076 113.075 16.253C113.043 16.3984 112.996 16.5588 112.932 16.7293L108.794 27.7574L104.56 16.7618C104.497 16.5952 104.449 16.436 104.416 16.2856C104.385 16.1414 104.369 16.0061 104.369 15.882C104.369 15.6677 104.434 15.4985 104.569 15.3656C104.707 15.2278 104.922 15.1275 105.21 15.0648C105.381 15.0222 105.586 14.9909 105.819 14.9696C106.058 14.9483 106.344 14.9257 106.669 14.9044L106.763 14.8981V14.3767H99.0176V14.8919L99.1044 14.9044C99.405 14.947 99.654 15.0009 99.8414 15.0636C100.024 15.1237 100.178 15.2052 100.3 15.3067C100.424 15.4082 100.536 15.5348 100.641 15.6927C100.748 15.8532 100.868 16.0738 100.993 16.347L107.645 31.9009H107.977L114.102 16.3746C114.208 16.1013 114.32 15.877 114.436 15.709C114.548 15.5474 114.686 15.4145 114.846 15.3142C114.991 15.2315 115.169 15.1513 115.373 15.0761C115.572 15.0034 115.825 14.9445 116.123 14.9019L116.21 14.8894L116.213 14.8906Z" fill="black"/>
<path d="M129.09 26.6735C128.514 27.6009 127.797 28.3128 126.959 28.7878C126.115 29.2666 125.133 29.5098 124.04 29.5098C123.101 29.5098 122.234 29.2892 121.466 28.853C120.699 28.4181 120.049 27.7764 119.534 26.9429C119.104 26.2586 118.777 25.4602 118.562 24.5703C118.346 23.6792 118.237 22.6916 118.237 21.635V21.1613C118.237 21.0999 118.242 21.0409 118.25 20.9845H129.159V20.6223C129.159 19.7011 129.024 18.8275 128.76 18.0254C128.495 17.2208 128.102 16.5214 127.592 15.9461C127.037 15.327 126.362 14.8507 125.587 14.5311C124.814 14.2115 123.94 14.0498 122.99 14.0498C122.239 14.0498 121.505 14.1789 120.807 14.4321C120.11 14.6865 119.445 15.06 118.828 15.5438C118.276 15.985 117.773 16.5139 117.334 17.1155C116.895 17.7171 116.526 18.3901 116.24 19.1146C115.975 19.7713 115.77 20.4757 115.627 21.2076C115.484 21.9371 115.412 22.6966 115.412 23.4662C115.412 24.6054 115.573 25.6871 115.892 26.6835C116.212 27.6824 116.687 28.5785 117.305 29.3481C117.966 30.1628 118.779 30.7982 119.718 31.2394C120.657 31.6793 121.704 31.9024 122.828 31.9024C123.599 31.9024 124.35 31.7796 125.059 31.5364C125.766 31.2945 126.427 30.9373 127.022 30.4748C127.596 30.0349 128.094 29.4935 128.505 28.8643C128.912 28.2376 129.22 27.5395 129.419 26.7925L129.44 26.7136L129.151 26.5694L129.09 26.6735ZM118.318 20.2601C118.405 19.5921 118.548 18.9554 118.742 18.3651C118.945 17.7459 119.201 17.1932 119.502 16.7207C119.907 16.0827 120.382 15.5939 120.913 15.2656C121.455 14.9297 122.001 14.7742 122.631 14.7742C123.261 14.7742 123.823 14.9384 124.296 15.263C124.771 15.5889 125.162 16.0752 125.458 16.7094C125.671 17.1794 125.835 17.7259 125.942 18.335C126.045 18.9203 126.099 19.567 126.104 20.2601H118.318Z" fill="black"/>
<path d="M141.435 14.5322L141.405 14.5021C141.263 14.3617 141.074 14.2489 140.842 14.1675C140.613 14.0885 140.359 14.0471 140.087 14.0471C139.545 14.0471 139.042 14.19 138.591 14.4708C138.144 14.749 137.693 15.2027 137.251 15.8206C137.01 16.1477 136.753 16.5538 136.491 17.0238C136.277 17.4048 136.037 17.8648 135.775 18.3925L135.893 14.1499L135.896 14.0459H135.661L130.345 15.7066V15.9748L132.607 17.0539V29.5422C132.607 29.8956 132.556 30.1764 132.454 30.3794C132.357 30.5737 132.193 30.7078 131.947 30.7893C131.801 30.8519 131.605 30.9046 131.362 30.9459C131.114 30.9898 130.76 31.0211 130.31 31.0424L130.213 31.0474V31.5713H138.844V31.0525L138.753 31.0437C138.329 30.9998 138.039 30.9735 137.864 30.9622C137.693 30.9509 137.542 30.9346 137.412 30.9133C137.114 30.872 136.865 30.8231 136.67 30.7692C136.482 30.7178 136.322 30.6589 136.205 30.6013C136.047 30.5035 135.936 30.3744 135.868 30.2065C135.798 30.036 135.761 29.8129 135.761 29.5422V19.1507C136.076 18.7798 136.42 18.4589 136.785 18.1995C137.158 17.9337 137.585 17.7244 138.055 17.5753C138.417 17.4487 138.83 17.356 139.28 17.3021C139.736 17.2482 140.273 17.2219 140.876 17.2219H141.435V14.5297V14.5322Z" fill="black"/>
<path d="M156.524 29.2354C155.646 28.5937 154.318 28.2678 152.577 28.2678H146.313C145.793 28.2678 145.412 28.1713 145.18 27.9808C144.951 27.7928 144.84 27.502 144.84 27.0934C144.84 26.6848 144.946 26.2951 145.156 25.8977C145.36 25.5117 145.678 25.1182 146.103 24.7271C146.55 24.9139 147.033 25.0605 147.538 25.1658C148.067 25.2761 148.614 25.3312 149.167 25.3312C150.03 25.3312 150.852 25.1921 151.612 24.9164C152.375 24.6406 153.064 24.2446 153.66 23.7382L153.868 23.5603H153.856C154.383 23.0652 154.8 22.4811 155.095 21.8219C155.423 21.0924 155.596 20.2815 155.596 19.4756C155.596 18.6697 155.41 17.924 155.044 17.2384C154.728 16.6494 154.289 16.1104 153.734 15.6341L156.663 16.0139H157.007V14.268L152.165 14.6666C151.692 14.4748 151.197 14.3219 150.695 14.2129C150.186 14.1026 149.683 14.0474 149.198 14.0474C148.338 14.0474 147.516 14.1865 146.754 14.4623C145.993 14.7368 145.304 15.1328 144.705 15.6404C144.084 16.1706 143.601 16.816 143.268 17.5555C142.936 18.295 142.767 19.0846 142.767 19.9005C142.767 20.4081 142.835 20.9007 142.968 21.3669C143.102 21.8319 143.305 22.2706 143.571 22.6691C143.815 23.0464 144.125 23.3998 144.491 23.7194C144.817 24.004 145.184 24.2521 145.585 24.4577C145.208 24.7083 144.875 24.9527 144.592 25.1846C144.274 25.4453 143.989 25.7123 143.743 25.9805C143.41 26.3565 143.157 26.7387 142.988 27.1185C142.82 27.4995 142.734 27.8981 142.734 28.3029C142.734 28.6162 142.786 28.9296 142.887 29.2329C142.987 29.5362 143.142 29.827 143.347 30.0989C143.551 30.3459 143.782 30.5664 144.037 30.7532C144.226 30.8923 144.432 31.0064 144.653 31.0928C143.627 31.5503 142.843 32.0667 142.319 32.6307C141.746 33.2461 141.455 33.9454 141.455 34.71C141.455 35.4281 141.696 36.0824 142.167 36.6539C142.634 37.2192 143.309 37.6954 144.173 38.0714C144.791 38.3346 145.488 38.5352 146.246 38.6668C147.004 38.7984 147.809 38.8648 148.64 38.8648C149.362 38.8648 150.079 38.8097 150.772 38.7006C151.462 38.5903 152.136 38.4249 152.772 38.2055C153.498 37.9637 154.167 37.6528 154.762 37.2806C155.355 36.9071 155.881 36.4847 156.324 36.021C156.832 35.4708 157.219 34.8666 157.476 34.2249C157.731 33.5832 157.861 32.8989 157.861 32.1933C157.861 30.8798 157.41 29.8846 156.524 29.2354ZM155.296 33.8264C155.296 34.5458 155.119 35.2038 154.769 35.7853C154.419 36.3669 153.897 36.8544 153.214 37.238C152.678 37.5576 152.048 37.807 151.339 37.9787C150.626 38.1504 149.861 38.2369 149.066 38.2369C148.36 38.2369 147.703 38.1454 147.112 37.9637C146.526 37.7832 146.014 37.52 145.587 37.1791C145.121 36.8206 144.767 36.3669 144.535 35.8292C144.301 35.289 144.182 34.6699 144.182 33.9893C144.182 33.3714 144.274 32.8174 144.453 32.3412C144.627 31.8824 144.879 31.5027 145.2 31.2132H152.116C153.201 31.2132 154.012 31.4312 154.528 31.8599C155.037 32.2835 155.295 32.9453 155.295 33.8251L155.296 33.8264ZM145.921 19.3791C145.921 18.7763 145.975 18.2047 146.083 17.6834C146.19 17.162 146.352 16.6932 146.566 16.2871C146.842 15.7595 147.189 15.3547 147.599 15.0827C148.007 14.812 148.49 14.6753 149.035 14.6753C149.623 14.6753 150.15 14.8345 150.601 15.1478C151.055 15.4649 151.447 15.9362 151.764 16.5466C151.979 16.9978 152.147 17.5229 152.264 18.1082C152.383 18.6998 152.443 19.3365 152.443 20.0008C152.443 20.6011 152.389 21.1714 152.281 21.6966C152.174 22.2179 152.012 22.6879 151.798 23.0928C151.524 23.6192 151.175 24.0253 150.765 24.2972C150.358 24.568 149.875 24.7046 149.329 24.7046C148.741 24.7046 148.215 24.5454 147.763 24.2321C147.309 23.9162 146.918 23.445 146.599 22.8308C146.385 22.3834 146.217 21.8582 146.098 21.2704C145.98 20.6839 145.92 20.0472 145.92 19.3779L145.921 19.3791Z" fill="black"/>
<path d="M171.713 26.5694L171.65 26.6735C171.074 27.6009 170.359 28.3128 169.52 28.7878C168.675 29.2666 167.694 29.5098 166.601 29.5098C165.662 29.5098 164.795 29.2892 164.027 28.853C163.26 28.4181 162.609 27.7764 162.095 26.9429C161.665 26.2586 161.338 25.4602 161.123 24.5703C160.907 23.6792 160.797 22.6916 160.797 21.635V21.1613C160.797 21.0999 160.802 21.0409 160.811 20.9845H171.719V20.6223C171.719 19.7011 171.585 18.8275 171.321 18.0254C171.055 17.2208 170.663 16.5214 170.152 15.9461C169.598 15.327 168.922 14.8507 168.148 14.5311C167.373 14.2115 166.5 14.0498 165.551 14.0498C164.8 14.0498 164.066 14.1789 163.368 14.4321C162.671 14.6865 162.006 15.06 161.388 15.5438C160.836 15.985 160.333 16.5139 159.894 17.1155C159.454 17.7171 159.087 18.3901 158.8 19.1146C158.536 19.7713 158.331 20.4757 158.188 21.2076C158.044 21.9383 157.973 22.6979 157.973 23.4662C157.973 24.6042 158.135 25.6871 158.453 26.6835C158.772 27.6811 159.247 28.5773 159.864 29.3481C160.527 30.1628 161.338 30.7994 162.277 31.2394C163.217 31.6793 164.263 31.9024 165.387 31.9024C166.158 31.9024 166.909 31.7796 167.618 31.5364C168.325 31.2945 168.985 30.9373 169.581 30.4748C170.155 30.0349 170.654 29.4935 171.064 28.8643C171.473 28.2376 171.78 27.5395 171.978 26.7925L172 26.7136L171.713 26.5694ZM160.878 20.2601C160.966 19.5921 161.108 18.9554 161.301 18.3651C161.504 17.7472 161.761 17.1932 162.062 16.7207C162.467 16.0827 162.943 15.5939 163.473 15.2656C164.015 14.9297 164.561 14.7742 165.191 14.7742C165.821 14.7742 166.383 14.9384 166.856 15.263C167.33 15.5889 167.721 16.0752 168.018 16.7094C168.232 17.1794 168.396 17.7271 168.502 18.335C168.606 18.9203 168.66 19.5683 168.665 20.2601H160.878Z" fill="black"/>
<path d="M6.28792 22.0988C8.4975 20.8454 11.0932 20.2351 13.9982 20.2852L14.1164 20.2877V19.7124H13.9994C10.9586 19.7187 8.28623 19.0682 6.04898 17.7685C3.84066 16.4863 1.99327 14.5374 0.558368 11.9768L0.500519 11.874L0 12.1623L0.0603641 12.2638C1.55563 14.7454 2.32276 17.2885 2.34037 19.8215C2.35797 22.4134 1.59084 25.0767 0.0591065 27.735L0.00125758 27.8353L0.498004 28.1211L0.555852 28.0208C2.09891 25.3712 4.02679 23.3784 6.28667 22.0975L6.28792 22.0988Z" fill="black"/>
<path d="M33.2233 19.8215C33.2409 17.2885 34.0068 14.7454 35.5033 12.2638L35.5636 12.1623L35.0631 11.874L35.0053 11.9768C33.5704 14.5374 31.723 16.4863 29.5147 17.7685C27.2774 19.0669 24.6025 19.7237 21.5642 19.7124H21.4473V20.2864L21.5655 20.2839C24.4717 20.2351 27.0661 20.8442 29.2757 22.0975C31.5356 23.3784 33.4635 25.3712 35.0065 28.0208L35.0644 28.1211L35.5611 27.8353L35.5033 27.735C33.9728 25.0767 33.2057 22.4134 33.222 19.8215H33.2233Z" fill="black"/>
<path d="M19.3633 16.6919L19.8626 16.9789L19.9204 16.8774C21.4321 14.2504 23.3373 12.2688 25.5846 10.9867C27.803 9.72207 30.4188 9.10042 33.3628 9.14303H33.481V8.569L33.3628 8.57151C30.4565 8.62164 27.8659 8.01252 25.6563 6.76043C23.3951 5.47952 21.4648 3.48545 19.9204 0.834643L19.8626 0.734375L19.3658 1.02013L19.4237 1.1204C20.9542 3.77623 21.7226 6.43707 21.705 9.02772C21.6886 11.5619 20.9215 14.1062 19.425 16.5891L19.3646 16.6906L19.3633 16.6919Z" fill="black"/>
<path d="M13.8531 31.2405C13.843 28.6599 14.6127 26.0241 16.1394 23.4059L16.1985 23.3056L15.6992 23.0186L15.6414 23.1214C14.2316 25.6544 12.4031 27.5883 10.2098 28.8692C7.96627 30.1789 5.27126 30.8469 2.19772 30.8532H2.08203V31.4247H2.19772C5.27378 31.4335 7.9713 32.1028 10.2149 33.4138C12.4068 34.6947 14.2341 36.6286 15.6426 39.1603L15.7005 39.2631L16.201 38.9749L16.1406 38.8733C14.6328 36.3541 13.8631 33.786 13.8531 31.238V31.2405Z" fill="black"/>
<path d="M25.3545 28.8692C23.1612 27.5883 21.334 25.6544 19.923 23.1214L19.8651 23.0186L19.3658 23.3056L19.425 23.4059C20.9517 26.0241 21.7213 28.6599 21.7112 31.2405C21.7012 33.7873 20.9315 36.3566 19.4237 38.8758L19.3633 38.9774L19.8639 39.2656L19.9217 39.1629C21.3302 36.6311 23.1562 34.6972 25.3494 33.4163C27.593 32.1053 30.2905 31.436 33.3665 31.4285H33.4822V30.8557H33.3665C30.293 30.8482 27.598 30.1814 25.3545 28.8717V28.8692Z" fill="black"/>
<path d="M2.19898 9.14275C5.14299 9.09889 7.75876 9.72054 9.97714 10.9864C12.2245 12.2685 14.1297 14.2501 15.6414 16.8771L15.6992 16.9786L16.1985 16.6916L16.1381 16.5901C14.6416 14.1059 13.8757 11.5617 13.8581 9.0287C13.8418 6.43805 14.6089 3.7772 16.1394 1.12138L16.1972 1.02111L15.7005 0.735352L15.6426 0.835619C14.097 3.48643 12.1679 5.47924 9.90672 6.76141C7.69714 8.01349 5.104 8.62387 2.20024 8.57248L2.08203 8.56998V9.14651L2.20024 9.14526L2.19898 9.14275Z" fill="black"/>
</g>
<defs>
<clipPath id="clip0_444_10986">
<rect width="172" height="40" fill="white"/>
</clipPath>
</defs>
</svg>
