<svg width="299" height="93" viewBox="0 0 299 93" fill="none" xmlns="http://www.w3.org/2000/svg">
<path d="M46.3662 0.838867H46.3682C71.5124 0.838867 91.8963 21.222 91.8965 46.3662V46.3682C91.8965 71.5126 71.5126 91.8965 46.3682 91.8965H46.3662C21.222 91.8963 0.838867 71.5124 0.838867 46.3682V46.3662C0.83904 21.2221 21.2221 0.83904 46.3662 0.838867Z" fill="white" stroke="black" stroke-width="1.67719"/>
<path d="M38.9287 11.8516C23.0125 15.2447 11.0743 29.3832 11.0742 46.3115C11.0743 63.2397 23.0126 77.3774 38.9287 80.7705V84.4062C21.0314 80.9584 7.5118 65.2153 7.51172 46.3115C7.51177 27.4076 21.0312 11.6634 38.9287 8.21582V11.8516ZM53.7588 8.22949C71.6235 11.7032 85.1103 27.4311 85.1104 46.3115C85.1103 65.1919 71.6234 80.9197 53.7588 84.3936V80.7559C69.6417 77.3376 81.5468 63.2162 81.5469 46.3115C81.5468 29.4068 69.6418 15.2844 53.7588 11.8662V8.22949Z" fill="black"/>
<path d="M51.8378 45.0151C54.7982 45.5793 57.0944 46.6674 58.7264 48.2794C60.3584 49.8511 61.1744 51.8661 61.1744 54.3244V58.1931C61.1744 61.135 60.1117 63.5127 57.9863 65.3262C55.8609 67.0994 53.0713 67.986 49.6175 67.986H48.422V74.1519H44.323V67.986H43.0705C40.7933 67.986 38.7818 67.4822 37.0359 66.4748C35.29 65.427 33.9237 63.9762 32.9369 62.1224C31.9881 60.2283 31.5137 58.0521 31.5137 55.5938H35.6127C35.6127 58.0924 36.2958 60.1275 37.6621 61.6992C39.0664 63.2306 40.9072 63.9963 43.1844 63.9963H49.5036C51.7429 63.9963 53.5457 63.4724 54.912 62.4246C56.2784 61.3365 56.9615 59.926 56.9615 58.1931V54.3244C56.9615 52.9542 56.4491 51.7855 55.4244 50.8183C54.4376 49.8511 53.0713 49.2264 51.3254 48.9443L41.078 47.1308C38.1935 46.6069 35.9542 45.5188 34.3602 43.8665C32.7661 42.2142 31.9691 40.1388 31.9691 37.6402V34.3759C31.9691 31.434 32.9939 29.0966 35.0434 27.3638C37.1308 25.5906 39.8824 24.704 43.2982 24.704H44.323V18.5381H48.422V24.704H49.7314C52.9574 24.704 55.5572 25.7518 57.5308 27.8474C59.5044 29.9026 60.4912 32.6229 60.4912 36.0081H56.3922C56.3922 33.7916 55.785 32.0184 54.5704 30.6885C53.3559 29.3586 51.7429 28.6936 49.7314 28.6936H43.2982C41.1349 28.6936 39.408 29.2175 38.1176 30.2653C36.8272 31.2728 36.182 32.643 36.182 34.3759V37.6402C36.182 39.0507 36.6564 40.2396 37.6052 41.2067C38.592 42.1739 39.9394 42.8187 41.6473 43.1411L51.8378 45.0151Z" fill="black"/>
<path d="M119.06 70.9136C115.803 70.9136 113.189 69.9923 111.218 68.1497C109.246 66.307 108.261 63.8858 108.261 60.8862H112.76C112.76 62.686 113.339 64.143 114.496 65.2571C115.653 66.3713 117.174 66.9284 119.06 66.9284H124.652C126.495 66.9284 127.994 66.5641 129.151 65.8356C130.308 65.0643 130.887 64.0787 130.887 62.8788V60.6933C130.887 59.8791 130.566 59.1721 129.923 58.5721C129.28 57.9293 128.444 57.5008 127.416 57.2866L116.296 55.3582C114.067 54.9725 112.268 54.1369 110.896 52.8513C109.568 51.5229 108.904 49.9802 108.904 48.2232V46.1021C108.904 43.6166 109.846 41.624 111.732 40.1241C113.617 38.5814 116.103 37.8101 119.188 37.8101H124.716C127.716 37.8101 130.137 38.6671 131.98 40.3812C133.822 42.0525 134.744 44.2808 134.744 47.0662H130.244C130.201 45.4807 129.666 44.2165 128.637 43.2738C127.652 42.2882 126.345 41.7954 124.716 41.7954H119.188C117.474 41.7954 116.103 42.2025 115.074 43.0167C114.046 43.788 113.532 44.8165 113.532 46.1021V47.9661C113.532 48.7803 113.874 49.5088 114.56 50.1516C115.289 50.7944 116.21 51.2015 117.324 51.3729L128.38 53.3013C130.523 53.6869 132.237 54.5226 133.522 55.8081C134.851 57.0937 135.515 58.6364 135.515 60.4362V63.0074C135.515 65.3642 134.508 67.2712 132.494 68.7282C130.523 70.1852 127.909 70.9136 124.652 70.9136H119.06ZM157.211 70.9136C154.469 70.9136 152.047 70.3137 149.948 69.1138C147.848 67.8711 146.219 66.1356 145.062 63.9073C143.905 61.6361 143.327 59.0435 143.327 56.1295V25.4043H148.083V56.2581C148.083 59.3863 148.919 61.9146 150.59 63.843C152.262 65.7285 154.469 66.6712 157.211 66.6712H164.153C166.896 66.6712 169.103 65.7285 170.774 63.843C172.445 61.9146 173.281 59.3863 173.281 56.2581V25.4043H178.037V56.1295C178.037 59.0435 177.459 61.6361 176.302 63.9073C175.145 66.1356 173.516 67.8711 171.417 69.1138C169.317 70.3137 166.896 70.9136 164.153 70.9136H157.211ZM199.595 70.9136C197.024 70.9136 194.753 70.378 192.782 69.3067C190.811 68.1925 189.268 66.6498 188.154 64.6786C187.082 62.6645 186.547 60.3505 186.547 57.7365H191.175C191.175 60.3934 191.946 62.5574 193.489 64.2287C195.074 65.8571 197.153 66.6712 199.724 66.6712H206.859C209.387 66.6712 211.423 66.1142 212.965 65C214.508 63.843 215.279 62.3431 215.279 60.5005V56.3866C215.279 54.9297 214.701 53.6869 213.544 52.6585C212.43 51.63 210.887 50.9658 208.916 50.6658L197.346 48.7375C194.089 48.1804 191.561 47.0234 189.761 45.2664C187.961 43.5095 187.061 41.3026 187.061 38.6457V35.1747C187.061 32.0464 188.218 29.561 190.532 27.7183C192.889 25.8328 195.996 24.8901 199.852 24.8901H207.116C210.758 24.8901 213.694 26.0042 215.922 28.2326C218.15 30.418 219.265 33.3106 219.265 36.9102H214.637C214.637 34.5533 213.951 32.6678 212.58 31.2537C211.208 29.8395 209.387 29.1325 207.116 29.1325H199.852C197.41 29.1325 195.46 29.6895 194.003 30.8037C192.546 31.875 191.818 33.332 191.818 35.1747V38.6457C191.818 40.1456 192.353 41.4097 193.425 42.4382C194.539 43.4666 196.06 44.1523 197.988 44.4951L209.494 46.4877C212.837 47.0877 215.429 48.2447 217.272 49.9588C219.115 51.63 220.036 53.7726 220.036 56.3866V60.5005C220.036 63.6287 218.836 66.157 216.436 68.0854C214.037 69.9709 210.887 70.9136 206.987 70.9136H199.595ZM232.567 70.3994C231.239 70.3994 230.21 70.0352 229.482 69.3067C228.753 68.5782 228.389 67.5497 228.389 66.2213V25.4043H247.03C250.201 25.4043 252.987 26.0257 255.386 27.2684C257.786 28.4683 259.65 30.2038 260.979 32.475C262.307 34.7033 262.971 37.2744 262.971 40.1884V54.3297C262.971 59.6006 261.643 63.6073 258.986 66.3499C256.329 69.0496 252.429 70.3994 247.287 70.3994H232.567ZM247.159 66.157C250.801 66.157 253.544 65.1714 255.386 63.2002C257.272 61.1861 258.215 58.2293 258.215 54.3297V40.1884C258.215 37.0602 257.165 34.5319 255.065 32.6035C253.008 30.6323 250.287 29.6467 246.902 29.6467H233.146V66.157H247.159ZM282.115 70.9136C278.516 70.9136 275.623 69.8638 273.438 67.764C271.252 65.6214 270.159 62.7931 270.159 59.2792V50.0873C270.159 46.402 271.252 43.4452 273.438 41.2169C275.623 38.9457 278.516 37.8101 282.115 37.8101H287.386C290.814 37.8101 293.578 38.9028 295.678 41.0883C297.778 43.2738 298.828 46.1663 298.828 49.7659V55.4225H274.787V59.2792C274.787 61.5075 275.452 63.3288 276.78 64.7429C278.151 66.1142 279.93 66.7998 282.115 66.7998H287C289.143 66.7998 290.879 66.2213 292.207 65.0643C293.535 63.8644 294.2 62.2789 294.2 60.3077H298.699C298.699 63.4787 297.628 66.0499 295.485 68.0211C293.343 69.9495 290.514 70.9136 287 70.9136H282.115ZM294.2 51.4372V49.7659C294.2 47.4091 293.578 45.5235 292.336 44.1094C291.093 42.6524 289.443 41.9239 287.386 41.9239H282.115C279.93 41.9239 278.151 42.6739 276.78 44.1737C275.452 45.6735 274.787 47.6447 274.787 50.0873V51.4372H294.2Z" fill="white"/>
</svg>
